<mxfile host="app.diagrams.net" modified="2023-04-10T06:43:54.085Z" agent="Mozilla/5.0 (Windows NT 10.0; Win64; x64) AppleWebKit/537.36 (KHTML, like Gecko) Chrome/109.0.0.0 Safari/537.36" etag="8avg-wiWKZ64McMQDZJU" version="21.1.2" type="github">
  <diagram name="第 1 页" id="ajpjnIilGAKAqzmqPqK5">
    <mxGraphModel dx="1434" dy="708" grid="1" gridSize="10" guides="1" tooltips="1" connect="1" arrows="1" fold="1" page="1" pageScale="1" pageWidth="827" pageHeight="1169" math="0" shadow="0">
      <root>
        <mxCell id="0" />
        <mxCell id="1" parent="0" />
        <mxCell id="8NAC_-i7CcL1mdJq9Iwz-1" value="新风控开关" style="swimlane;childLayout=stackLayout;resizeParent=1;resizeParentMax=0;startSize=20;html=1;fillColor=#f5f5f5;fontColor=#333333;strokeColor=#666666;" vertex="1" parent="1">
          <mxGeometry x="230" y="210" width="610" height="550" as="geometry" />
        </mxCell>
        <mxCell id="8NAC_-i7CcL1mdJq9Iwz-2" value="老风控" style="swimlane;startSize=20;html=1;fillColor=#f5f5f5;fontColor=#333333;strokeColor=#666666;" vertex="1" parent="8NAC_-i7CcL1mdJq9Iwz-1">
          <mxGeometry y="20" width="210" height="530" as="geometry" />
        </mxCell>
        <mxCell id="8NAC_-i7CcL1mdJq9Iwz-18" value="&lt;div style=&quot;font-size: 11px;&quot;&gt;&lt;div&gt;APPID:int-spring-mlp-risk-control&lt;/div&gt;&lt;div&gt;URI:/orderFraud/detect&lt;/div&gt;&lt;/div&gt;" style="rounded=1;whiteSpace=wrap;html=1;absoluteArcSize=1;arcSize=14;strokeWidth=1;fillColor=#dae8fc;strokeColor=none;" vertex="1" parent="8NAC_-i7CcL1mdJq9Iwz-2">
          <mxGeometry x="7.5" y="290" width="195" height="50" as="geometry" />
        </mxCell>
        <mxCell id="8NAC_-i7CcL1mdJq9Iwz-8" style="edgeStyle=orthogonalEdgeStyle;rounded=0;orthogonalLoop=1;jettySize=auto;html=1;exitX=1;exitY=0.5;exitDx=0;exitDy=0;exitPerimeter=0;entryX=0.5;entryY=0;entryDx=0;entryDy=0;strokeColor=#009900;" edge="1" parent="8NAC_-i7CcL1mdJq9Iwz-1" source="8NAC_-i7CcL1mdJq9Iwz-6" target="8NAC_-i7CcL1mdJq9Iwz-9">
          <mxGeometry relative="1" as="geometry">
            <mxPoint x="300" y="220" as="targetPoint" />
          </mxGeometry>
        </mxCell>
        <mxCell id="8NAC_-i7CcL1mdJq9Iwz-27" value="true" style="edgeLabel;html=1;align=center;verticalAlign=middle;resizable=0;points=[];" vertex="1" connectable="0" parent="8NAC_-i7CcL1mdJq9Iwz-8">
          <mxGeometry x="-0.3586" y="1" relative="1" as="geometry">
            <mxPoint as="offset" />
          </mxGeometry>
        </mxCell>
        <mxCell id="8NAC_-i7CcL1mdJq9Iwz-3" value="交易" style="swimlane;startSize=20;html=1;fillColor=#f5f5f5;fontColor=#333333;strokeColor=#666666;" vertex="1" parent="8NAC_-i7CcL1mdJq9Iwz-1">
          <mxGeometry x="210" y="20" width="180" height="530" as="geometry" />
        </mxCell>
        <mxCell id="8NAC_-i7CcL1mdJq9Iwz-5" value="开始" style="strokeWidth=1;html=1;shape=mxgraph.flowchart.start_2;whiteSpace=wrap;fillColor=#d5e8d4;strokeColor=none;" vertex="1" parent="8NAC_-i7CcL1mdJq9Iwz-3">
          <mxGeometry x="65" y="50" width="50" height="50" as="geometry" />
        </mxCell>
        <mxCell id="8NAC_-i7CcL1mdJq9Iwz-6" value="开关状态" style="strokeWidth=1;html=1;shape=mxgraph.flowchart.decision;whiteSpace=wrap;fillColor=#d5e8d4;strokeColor=none;" vertex="1" parent="8NAC_-i7CcL1mdJq9Iwz-3">
          <mxGeometry x="55" y="140" width="70" height="50" as="geometry" />
        </mxCell>
        <mxCell id="8NAC_-i7CcL1mdJq9Iwz-7" style="edgeStyle=orthogonalEdgeStyle;rounded=0;orthogonalLoop=1;jettySize=auto;html=1;entryX=0.5;entryY=0;entryDx=0;entryDy=0;entryPerimeter=0;strokeColor=#009900;" edge="1" parent="8NAC_-i7CcL1mdJq9Iwz-3" source="8NAC_-i7CcL1mdJq9Iwz-5" target="8NAC_-i7CcL1mdJq9Iwz-6">
          <mxGeometry relative="1" as="geometry" />
        </mxCell>
        <mxCell id="8NAC_-i7CcL1mdJq9Iwz-22" value="结束" style="strokeWidth=1;html=1;shape=mxgraph.flowchart.start_2;whiteSpace=wrap;fillColor=#d5e8d4;strokeColor=none;" vertex="1" parent="8NAC_-i7CcL1mdJq9Iwz-3">
          <mxGeometry x="75" y="450" width="50" height="50" as="geometry" />
        </mxCell>
        <mxCell id="8NAC_-i7CcL1mdJq9Iwz-17" style="edgeStyle=orthogonalEdgeStyle;rounded=0;orthogonalLoop=1;jettySize=auto;html=1;entryX=0.5;entryY=0;entryDx=0;entryDy=0;strokeColor=#6C8EBF;" edge="1" parent="8NAC_-i7CcL1mdJq9Iwz-1" source="8NAC_-i7CcL1mdJq9Iwz-6" target="8NAC_-i7CcL1mdJq9Iwz-18">
          <mxGeometry relative="1" as="geometry">
            <mxPoint x="130" y="185" as="targetPoint" />
          </mxGeometry>
        </mxCell>
        <mxCell id="8NAC_-i7CcL1mdJq9Iwz-28" value="false" style="edgeLabel;html=1;align=center;verticalAlign=middle;resizable=0;points=[];" vertex="1" connectable="0" parent="8NAC_-i7CcL1mdJq9Iwz-17">
          <mxGeometry x="-0.2351" y="2" relative="1" as="geometry">
            <mxPoint as="offset" />
          </mxGeometry>
        </mxCell>
        <mxCell id="8NAC_-i7CcL1mdJq9Iwz-25" style="edgeStyle=orthogonalEdgeStyle;rounded=0;orthogonalLoop=1;jettySize=auto;html=1;exitX=0.5;exitY=1;exitDx=0;exitDy=0;entryX=0;entryY=0.5;entryDx=0;entryDy=0;entryPerimeter=0;strokeColor=#6C8EBF;" edge="1" parent="8NAC_-i7CcL1mdJq9Iwz-1" source="8NAC_-i7CcL1mdJq9Iwz-18" target="8NAC_-i7CcL1mdJq9Iwz-22">
          <mxGeometry relative="1" as="geometry" />
        </mxCell>
        <mxCell id="8NAC_-i7CcL1mdJq9Iwz-26" style="edgeStyle=orthogonalEdgeStyle;rounded=0;orthogonalLoop=1;jettySize=auto;html=1;exitX=0.5;exitY=1;exitDx=0;exitDy=0;entryX=1;entryY=0.5;entryDx=0;entryDy=0;entryPerimeter=0;strokeColor=#009900;" edge="1" parent="8NAC_-i7CcL1mdJq9Iwz-1" source="8NAC_-i7CcL1mdJq9Iwz-9" target="8NAC_-i7CcL1mdJq9Iwz-22">
          <mxGeometry relative="1" as="geometry" />
        </mxCell>
        <mxCell id="8NAC_-i7CcL1mdJq9Iwz-14" value="新风控" style="swimlane;startSize=20;html=1;fillColor=#f5f5f5;fontColor=#333333;strokeColor=#666666;" vertex="1" parent="8NAC_-i7CcL1mdJq9Iwz-1">
          <mxGeometry x="390" y="20" width="220" height="530" as="geometry" />
        </mxCell>
        <mxCell id="8NAC_-i7CcL1mdJq9Iwz-9" value="&lt;div style=&quot;font-size: 11px;&quot;&gt;&lt;div&gt;APPID:int-service-mkt-risk-api&lt;/div&gt;&lt;div&gt;URI:/api/antiFraud&lt;/div&gt;&lt;/div&gt;" style="rounded=1;whiteSpace=wrap;html=1;absoluteArcSize=1;arcSize=14;strokeWidth=1;strokeColor=none;fillColor=#d5e8d4;" vertex="1" parent="8NAC_-i7CcL1mdJq9Iwz-14">
          <mxGeometry x="12.5" y="290" width="195" height="50" as="geometry" />
        </mxCell>
      </root>
    </mxGraphModel>
  </diagram>
</mxfile>
